<mxfile host="app.diagrams.net" modified="2024-02-26T06:06:10.630Z" agent="Mozilla/5.0 (Macintosh; Intel Mac OS X 10_15_7) AppleWebKit/537.36 (KHTML, like Gecko) Chrome/121.0.0.0 Safari/537.36" etag="diROETlcTRCWJOe1erDg" version="23.1.6" type="github">
  <diagram name="第 1 页" id="3lSCtHeRP_uNWCtPQei-">
    <mxGraphModel dx="1151" dy="828" grid="0" gridSize="10" guides="1" tooltips="1" connect="1" arrows="1" fold="1" page="1" pageScale="1" pageWidth="1654" pageHeight="2336" math="0" shadow="0">
      <root>
        <mxCell id="0" />
        <mxCell id="1" parent="0" />
        <mxCell id="akvTSjm4kYdSnjer6Cz9-225" value="" style="rounded=0;whiteSpace=wrap;html=1;fillColor=none;strokeColor=#6c8ebf;" vertex="1" parent="1">
          <mxGeometry x="150" y="713" width="683" height="331" as="geometry" />
        </mxCell>
        <mxCell id="akvTSjm4kYdSnjer6Cz9-223" value="" style="rounded=0;whiteSpace=wrap;html=1;fillColor=none;strokeColor=#6c8ebf;" vertex="1" parent="1">
          <mxGeometry x="149" y="1086" width="683.99" height="331" as="geometry" />
        </mxCell>
        <mxCell id="mTwDBgM2eWFi6Xne1lLN-4" value="" style="rounded=0;whiteSpace=wrap;html=1;fillColor=none;fontSize=11;fontFamily=Hei;" parent="1" vertex="1">
          <mxGeometry x="373" y="167" width="120" height="170" as="geometry" />
        </mxCell>
        <mxCell id="mTwDBgM2eWFi6Xne1lLN-5" value="属性字段" style="rounded=0;whiteSpace=wrap;html=1;fillColor=none;fontSize=11;fontFamily=Hei;" parent="1" vertex="1">
          <mxGeometry x="373" y="167" width="120" height="30" as="geometry" />
        </mxCell>
        <mxCell id="mTwDBgM2eWFi6Xne1lLN-9" style="edgeStyle=orthogonalEdgeStyle;rounded=0;orthogonalLoop=1;jettySize=auto;html=1;exitX=0;exitY=0.5;exitDx=0;exitDy=0;" parent="1" edge="1">
          <mxGeometry relative="1" as="geometry">
            <mxPoint x="306.99583530970995" y="160" as="targetPoint" />
            <mxPoint x="371.47" y="160" as="sourcePoint" />
          </mxGeometry>
        </mxCell>
        <mxCell id="mTwDBgM2eWFi6Xne1lLN-10" style="edgeStyle=orthogonalEdgeStyle;rounded=0;orthogonalLoop=1;jettySize=auto;html=1;exitX=1;exitY=0.5;exitDx=0;exitDy=0;" parent="1" edge="1">
          <mxGeometry relative="1" as="geometry">
            <mxPoint x="555.9544067382812" y="159" as="targetPoint" />
            <mxPoint x="493" y="159" as="sourcePoint" />
          </mxGeometry>
        </mxCell>
        <mxCell id="mTwDBgM2eWFi6Xne1lLN-6" value="指针" style="rounded=0;whiteSpace=wrap;html=1;fillColor=none;fontSize=11;fontFamily=Hei;" parent="1" vertex="1">
          <mxGeometry x="373" y="137" width="120" height="30" as="geometry" />
        </mxCell>
        <mxCell id="mTwDBgM2eWFi6Xne1lLN-7" value="数据字段" style="text;html=1;align=center;verticalAlign=middle;resizable=0;points=[];autosize=1;strokeColor=none;fillColor=none;fontSize=11;fontFamily=Hei;" parent="1" vertex="1">
          <mxGeometry x="402" y="309" width="62" height="25" as="geometry" />
        </mxCell>
        <mxCell id="mTwDBgM2eWFi6Xne1lLN-8" value="Page" style="text;html=1;align=center;verticalAlign=middle;resizable=0;points=[];autosize=1;strokeColor=none;fillColor=none;fontSize=15;fontFamily=Hei;" parent="1" vertex="1">
          <mxGeometry x="406.5" y="107" width="53" height="30" as="geometry" />
        </mxCell>
        <mxCell id="mTwDBgM2eWFi6Xne1lLN-11" style="edgeStyle=orthogonalEdgeStyle;rounded=0;orthogonalLoop=1;jettySize=auto;html=1;exitX=0.5;exitY=1;exitDx=0;exitDy=0;" parent="1" source="mTwDBgM2eWFi6Xne1lLN-1" target="mTwDBgM2eWFi6Xne1lLN-1" edge="1">
          <mxGeometry relative="1" as="geometry" />
        </mxCell>
        <mxCell id="mTwDBgM2eWFi6Xne1lLN-12" style="edgeStyle=orthogonalEdgeStyle;rounded=0;orthogonalLoop=1;jettySize=auto;html=1;exitX=0.5;exitY=1;exitDx=0;exitDy=0;" parent="1" source="mTwDBgM2eWFi6Xne1lLN-1" target="mTwDBgM2eWFi6Xne1lLN-3" edge="1">
          <mxGeometry relative="1" as="geometry" />
        </mxCell>
        <mxCell id="mTwDBgM2eWFi6Xne1lLN-1" value="1，小明" style="rounded=0;whiteSpace=wrap;html=1;fontSize=11;fontFamily=Hei;" parent="1" vertex="1">
          <mxGeometry x="411.5" y="208" width="43" height="20" as="geometry" />
        </mxCell>
        <mxCell id="mTwDBgM2eWFi6Xne1lLN-2" value="3，小陈" style="rounded=0;whiteSpace=wrap;html=1;fontSize=11;fontFamily=Hei;" parent="1" vertex="1">
          <mxGeometry x="411.5" y="274" width="43" height="20" as="geometry" />
        </mxCell>
        <mxCell id="mTwDBgM2eWFi6Xne1lLN-13" style="edgeStyle=orthogonalEdgeStyle;rounded=0;orthogonalLoop=1;jettySize=auto;html=1;exitX=0.5;exitY=1;exitDx=0;exitDy=0;entryX=0.5;entryY=0;entryDx=0;entryDy=0;" parent="1" source="mTwDBgM2eWFi6Xne1lLN-3" target="mTwDBgM2eWFi6Xne1lLN-2" edge="1">
          <mxGeometry relative="1" as="geometry" />
        </mxCell>
        <mxCell id="mTwDBgM2eWFi6Xne1lLN-3" value="2，小王" style="rounded=0;whiteSpace=wrap;html=1;fontSize=11;fontFamily=Hei;" parent="1" vertex="1">
          <mxGeometry x="411.5" y="241" width="43" height="20" as="geometry" />
        </mxCell>
        <mxCell id="mTwDBgM2eWFi6Xne1lLN-16" value="" style="rounded=0;whiteSpace=wrap;html=1;fillColor=none;fontSize=11;fontFamily=Hei;" parent="1" vertex="1">
          <mxGeometry x="373" y="137" width="120" height="200" as="geometry" />
        </mxCell>
        <mxCell id="mTwDBgM2eWFi6Xne1lLN-17" value="" style="rounded=0;whiteSpace=wrap;html=1;fillColor=none;fontSize=11;fontFamily=Hei;" parent="1" vertex="1">
          <mxGeometry x="556" y="137" width="120" height="200" as="geometry" />
        </mxCell>
        <mxCell id="mTwDBgM2eWFi6Xne1lLN-18" value="" style="rounded=0;whiteSpace=wrap;html=1;fillColor=none;fontSize=11;fontFamily=Hei;" parent="1" vertex="1">
          <mxGeometry x="187" y="137" width="120" height="200" as="geometry" />
        </mxCell>
        <mxCell id="mTwDBgM2eWFi6Xne1lLN-19" value="Page" style="text;html=1;align=center;verticalAlign=middle;resizable=0;points=[];autosize=1;strokeColor=none;fillColor=none;fontSize=15;fontFamily=Hei;" parent="1" vertex="1">
          <mxGeometry x="220.5" y="107" width="53" height="30" as="geometry" />
        </mxCell>
        <mxCell id="mTwDBgM2eWFi6Xne1lLN-20" value="Page" style="text;html=1;align=center;verticalAlign=middle;resizable=0;points=[];autosize=1;strokeColor=none;fillColor=none;fontSize=15;fontFamily=Hei;" parent="1" vertex="1">
          <mxGeometry x="589.5" y="107" width="53" height="30" as="geometry" />
        </mxCell>
        <mxCell id="mTwDBgM2eWFi6Xne1lLN-21" style="edgeStyle=orthogonalEdgeStyle;rounded=0;orthogonalLoop=1;jettySize=auto;html=1;exitX=0;exitY=0.5;exitDx=0;exitDy=0;" parent="1" edge="1">
          <mxGeometry relative="1" as="geometry">
            <mxPoint x="122.52583530970992" y="161" as="targetPoint" />
            <mxPoint x="187" y="161" as="sourcePoint" />
          </mxGeometry>
        </mxCell>
        <mxCell id="mTwDBgM2eWFi6Xne1lLN-22" style="edgeStyle=orthogonalEdgeStyle;rounded=0;orthogonalLoop=1;jettySize=auto;html=1;exitX=1;exitY=0.5;exitDx=0;exitDy=0;" parent="1" edge="1">
          <mxGeometry relative="1" as="geometry">
            <mxPoint x="738.9544067382812" y="160" as="targetPoint" />
            <mxPoint x="676" y="160" as="sourcePoint" />
          </mxGeometry>
        </mxCell>
        <mxCell id="mTwDBgM2eWFi6Xne1lLN-23" value="" style="rounded=0;whiteSpace=wrap;html=1;fillColor=none;fontSize=11;fontFamily=Hei;" parent="1" vertex="1">
          <mxGeometry x="292.47" y="442" width="168.53" height="170" as="geometry" />
        </mxCell>
        <mxCell id="mTwDBgM2eWFi6Xne1lLN-24" value="属性字段" style="rounded=0;whiteSpace=wrap;html=1;fillColor=none;fontSize=11;fontFamily=Hei;" parent="1" vertex="1">
          <mxGeometry x="292.47" y="442" width="168.53" height="30" as="geometry" />
        </mxCell>
        <mxCell id="mTwDBgM2eWFi6Xne1lLN-25" style="edgeStyle=orthogonalEdgeStyle;rounded=0;orthogonalLoop=1;jettySize=auto;html=1;exitX=0;exitY=0.5;exitDx=0;exitDy=0;" parent="1" edge="1">
          <mxGeometry relative="1" as="geometry">
            <mxPoint x="227.99583530970992" y="433" as="targetPoint" />
            <mxPoint x="292.47" y="433" as="sourcePoint" />
          </mxGeometry>
        </mxCell>
        <mxCell id="mTwDBgM2eWFi6Xne1lLN-27" value="指针" style="rounded=0;whiteSpace=wrap;html=1;fillColor=none;fontSize=11;fontFamily=Hei;" parent="1" vertex="1">
          <mxGeometry x="292.47" y="412" width="168.53" height="30" as="geometry" />
        </mxCell>
        <mxCell id="mTwDBgM2eWFi6Xne1lLN-28" value="数据字段" style="text;html=1;align=center;verticalAlign=middle;resizable=0;points=[];autosize=1;strokeColor=none;fillColor=none;fontSize=11;fontFamily=Hei;" parent="1" vertex="1">
          <mxGeometry x="345.73" y="587" width="62" height="25" as="geometry" />
        </mxCell>
        <mxCell id="mTwDBgM2eWFi6Xne1lLN-29" value="Page" style="text;html=1;align=center;verticalAlign=middle;resizable=0;points=[];autosize=1;strokeColor=none;fillColor=none;fontSize=15;fontFamily=Hei;" parent="1" vertex="1">
          <mxGeometry x="350.24" y="379" width="53" height="30" as="geometry" />
        </mxCell>
        <mxCell id="mTwDBgM2eWFi6Xne1lLN-30" style="edgeStyle=orthogonalEdgeStyle;rounded=0;orthogonalLoop=1;jettySize=auto;html=1;exitX=0.5;exitY=1;exitDx=0;exitDy=0;" parent="1" source="mTwDBgM2eWFi6Xne1lLN-32" target="mTwDBgM2eWFi6Xne1lLN-32" edge="1">
          <mxGeometry relative="1" as="geometry" />
        </mxCell>
        <mxCell id="mTwDBgM2eWFi6Xne1lLN-31" style="edgeStyle=orthogonalEdgeStyle;rounded=0;orthogonalLoop=1;jettySize=auto;html=1;exitX=0.5;exitY=1;exitDx=0;exitDy=0;" parent="1" source="mTwDBgM2eWFi6Xne1lLN-32" target="mTwDBgM2eWFi6Xne1lLN-35" edge="1">
          <mxGeometry relative="1" as="geometry" />
        </mxCell>
        <mxCell id="mTwDBgM2eWFi6Xne1lLN-32" value="1，小明" style="rounded=0;whiteSpace=wrap;html=1;fontSize=11;fontFamily=Hei;" parent="1" vertex="1">
          <mxGeometry x="380.97" y="497" width="43" height="20" as="geometry" />
        </mxCell>
        <mxCell id="mTwDBgM2eWFi6Xne1lLN-33" value="3，小陈" style="rounded=0;whiteSpace=wrap;html=1;fontSize=11;fontFamily=Hei;" parent="1" vertex="1">
          <mxGeometry x="380.97" y="563" width="43" height="20" as="geometry" />
        </mxCell>
        <mxCell id="mTwDBgM2eWFi6Xne1lLN-34" style="edgeStyle=orthogonalEdgeStyle;rounded=0;orthogonalLoop=1;jettySize=auto;html=1;exitX=0.5;exitY=1;exitDx=0;exitDy=0;entryX=0.5;entryY=0;entryDx=0;entryDy=0;" parent="1" source="mTwDBgM2eWFi6Xne1lLN-35" target="mTwDBgM2eWFi6Xne1lLN-33" edge="1">
          <mxGeometry relative="1" as="geometry" />
        </mxCell>
        <mxCell id="mTwDBgM2eWFi6Xne1lLN-35" value="2，小王" style="rounded=0;whiteSpace=wrap;html=1;fontSize=11;fontFamily=Hei;" parent="1" vertex="1">
          <mxGeometry x="380.97" y="530" width="43" height="20" as="geometry" />
        </mxCell>
        <mxCell id="mTwDBgM2eWFi6Xne1lLN-42" style="edgeStyle=orthogonalEdgeStyle;rounded=0;orthogonalLoop=1;jettySize=auto;html=1;exitX=1;exitY=0.5;exitDx=0;exitDy=0;entryX=0;entryY=0.5;entryDx=0;entryDy=0;" parent="1" source="mTwDBgM2eWFi6Xne1lLN-40" target="mTwDBgM2eWFi6Xne1lLN-33" edge="1">
          <mxGeometry relative="1" as="geometry">
            <Array as="points">
              <mxPoint x="368" y="532" />
              <mxPoint x="368" y="573" />
            </Array>
          </mxGeometry>
        </mxCell>
        <mxCell id="mTwDBgM2eWFi6Xne1lLN-37" value="" style="rounded=0;whiteSpace=wrap;html=1;labelBorderColor=none;fillColor=none;" parent="1" vertex="1">
          <mxGeometry x="307" y="494" width="50" height="76" as="geometry" />
        </mxCell>
        <mxCell id="mTwDBgM2eWFi6Xne1lLN-38" value="页内目录" style="text;html=1;align=center;verticalAlign=middle;resizable=0;points=[];autosize=1;strokeColor=none;fillColor=none;fontSize=11;fontFamily=Hei;" parent="1" vertex="1">
          <mxGeometry x="301" y="472" width="62" height="25" as="geometry" />
        </mxCell>
        <mxCell id="mTwDBgM2eWFi6Xne1lLN-41" style="edgeStyle=orthogonalEdgeStyle;rounded=0;orthogonalLoop=1;jettySize=auto;html=1;exitX=1;exitY=0.5;exitDx=0;exitDy=0;" parent="1" source="mTwDBgM2eWFi6Xne1lLN-39" target="mTwDBgM2eWFi6Xne1lLN-32" edge="1">
          <mxGeometry relative="1" as="geometry" />
        </mxCell>
        <mxCell id="mTwDBgM2eWFi6Xne1lLN-39" value="目录1" style="rounded=0;whiteSpace=wrap;html=1;fontSize=11;fontFamily=Hei;" parent="1" vertex="1">
          <mxGeometry x="310.5" y="497" width="43" height="20" as="geometry" />
        </mxCell>
        <mxCell id="mTwDBgM2eWFi6Xne1lLN-40" value="目录2" style="rounded=0;whiteSpace=wrap;html=1;fontSize=11;fontFamily=Hei;" parent="1" vertex="1">
          <mxGeometry x="310.5" y="522" width="43" height="20" as="geometry" />
        </mxCell>
        <mxCell id="mTwDBgM2eWFi6Xne1lLN-43" value="槽(指针)" style="text;html=1;align=center;verticalAlign=middle;resizable=0;points=[];autosize=1;strokeColor=none;fillColor=none;fontSize=7;fontFamily=Hei;" parent="1" vertex="1">
          <mxGeometry x="350.24" y="481" width="46" height="20" as="geometry" />
        </mxCell>
        <mxCell id="mTwDBgM2eWFi6Xne1lLN-45" style="edgeStyle=orthogonalEdgeStyle;rounded=0;orthogonalLoop=1;jettySize=auto;html=1;exitX=0;exitY=0.5;exitDx=0;exitDy=0;" parent="1" edge="1">
          <mxGeometry relative="1" as="geometry">
            <mxPoint x="491.5258353097099" y="146" as="targetPoint" />
            <mxPoint x="556" y="146" as="sourcePoint" />
          </mxGeometry>
        </mxCell>
        <mxCell id="mTwDBgM2eWFi6Xne1lLN-46" style="edgeStyle=orthogonalEdgeStyle;rounded=0;orthogonalLoop=1;jettySize=auto;html=1;exitX=0;exitY=0.5;exitDx=0;exitDy=0;" parent="1" edge="1">
          <mxGeometry relative="1" as="geometry">
            <mxPoint x="675.99583530971" y="145" as="targetPoint" />
            <mxPoint x="740.47" y="145" as="sourcePoint" />
          </mxGeometry>
        </mxCell>
        <mxCell id="mTwDBgM2eWFi6Xne1lLN-47" style="edgeStyle=orthogonalEdgeStyle;rounded=0;orthogonalLoop=1;jettySize=auto;html=1;exitX=1;exitY=0.5;exitDx=0;exitDy=0;" parent="1" edge="1">
          <mxGeometry relative="1" as="geometry">
            <mxPoint x="369.95440673828125" y="146" as="targetPoint" />
            <mxPoint x="307" y="146" as="sourcePoint" />
          </mxGeometry>
        </mxCell>
        <mxCell id="mTwDBgM2eWFi6Xne1lLN-48" style="edgeStyle=orthogonalEdgeStyle;rounded=0;orthogonalLoop=1;jettySize=auto;html=1;exitX=1;exitY=0.5;exitDx=0;exitDy=0;" parent="1" edge="1">
          <mxGeometry relative="1" as="geometry">
            <mxPoint x="187.00440673828126" y="145" as="targetPoint" />
            <mxPoint x="124.05000000000001" y="145" as="sourcePoint" />
          </mxGeometry>
        </mxCell>
        <mxCell id="mTwDBgM2eWFi6Xne1lLN-49" style="edgeStyle=orthogonalEdgeStyle;rounded=0;orthogonalLoop=1;jettySize=auto;html=1;exitX=1;exitY=0.5;exitDx=0;exitDy=0;" parent="1" edge="1">
          <mxGeometry relative="1" as="geometry">
            <mxPoint x="292.47440673828123" y="419" as="targetPoint" />
            <mxPoint x="229.52" y="419" as="sourcePoint" />
          </mxGeometry>
        </mxCell>
        <mxCell id="mTwDBgM2eWFi6Xne1lLN-50" style="edgeStyle=orthogonalEdgeStyle;rounded=0;orthogonalLoop=1;jettySize=auto;html=1;exitX=1;exitY=0.5;exitDx=0;exitDy=0;" parent="1" edge="1">
          <mxGeometry relative="1" as="geometry">
            <mxPoint x="523.9544067382812" y="432" as="targetPoint" />
            <mxPoint x="461" y="432" as="sourcePoint" />
          </mxGeometry>
        </mxCell>
        <mxCell id="mTwDBgM2eWFi6Xne1lLN-51" style="edgeStyle=orthogonalEdgeStyle;rounded=0;orthogonalLoop=1;jettySize=auto;html=1;exitX=0;exitY=0.5;exitDx=0;exitDy=0;" parent="1" edge="1">
          <mxGeometry relative="1" as="geometry">
            <mxPoint x="460.99583530970995" y="420" as="targetPoint" />
            <mxPoint x="525.47" y="420" as="sourcePoint" />
          </mxGeometry>
        </mxCell>
        <mxCell id="akvTSjm4kYdSnjer6Cz9-23" value="" style="shape=table;startSize=0;container=1;collapsible=0;childLayout=tableLayout;fontSize=16;" vertex="1" parent="1">
          <mxGeometry x="170.24" y="949" width="176.2072045898438" height="80" as="geometry" />
        </mxCell>
        <mxCell id="akvTSjm4kYdSnjer6Cz9-42" style="shape=tableRow;horizontal=0;startSize=0;swimlaneHead=0;swimlaneBody=0;strokeColor=inherit;top=0;left=0;bottom=0;right=0;collapsible=0;dropTarget=0;fillColor=none;points=[[0,0.5],[1,0.5]];portConstraint=eastwest;fontSize=16;" vertex="1" parent="akvTSjm4kYdSnjer6Cz9-23">
          <mxGeometry width="176.2072045898438" height="40" as="geometry" />
        </mxCell>
        <mxCell id="akvTSjm4kYdSnjer6Cz9-43" value="ID" style="shape=partialRectangle;html=1;whiteSpace=wrap;connectable=0;strokeColor=inherit;overflow=hidden;fillColor=none;top=0;left=0;bottom=0;right=0;pointerEvents=1;fontSize=16;" vertex="1" parent="akvTSjm4kYdSnjer6Cz9-42">
          <mxGeometry width="60" height="40" as="geometry">
            <mxRectangle width="60" height="40" as="alternateBounds" />
          </mxGeometry>
        </mxCell>
        <mxCell id="akvTSjm4kYdSnjer6Cz9-44" value="NAME" style="shape=partialRectangle;html=1;whiteSpace=wrap;connectable=0;strokeColor=inherit;overflow=hidden;fillColor=none;top=0;left=0;bottom=0;right=0;pointerEvents=1;fontSize=16;" vertex="1" parent="akvTSjm4kYdSnjer6Cz9-42">
          <mxGeometry x="60" width="56" height="40" as="geometry">
            <mxRectangle width="56" height="40" as="alternateBounds" />
          </mxGeometry>
        </mxCell>
        <mxCell id="akvTSjm4kYdSnjer6Cz9-45" value="AGE" style="shape=partialRectangle;html=1;whiteSpace=wrap;connectable=0;strokeColor=inherit;overflow=hidden;fillColor=none;top=0;left=0;bottom=0;right=0;pointerEvents=1;fontSize=16;" vertex="1" parent="akvTSjm4kYdSnjer6Cz9-42">
          <mxGeometry x="116" width="60" height="40" as="geometry">
            <mxRectangle width="60" height="40" as="alternateBounds" />
          </mxGeometry>
        </mxCell>
        <mxCell id="akvTSjm4kYdSnjer6Cz9-24" value="" style="shape=tableRow;horizontal=0;startSize=0;swimlaneHead=0;swimlaneBody=0;strokeColor=inherit;top=0;left=0;bottom=0;right=0;collapsible=0;dropTarget=0;fillColor=none;points=[[0,0.5],[1,0.5]];portConstraint=eastwest;fontSize=16;" vertex="1" parent="akvTSjm4kYdSnjer6Cz9-23">
          <mxGeometry y="40" width="176.2072045898438" height="40" as="geometry" />
        </mxCell>
        <mxCell id="akvTSjm4kYdSnjer6Cz9-25" value="1" style="shape=partialRectangle;html=1;whiteSpace=wrap;connectable=0;strokeColor=inherit;overflow=hidden;fillColor=none;top=0;left=0;bottom=0;right=0;pointerEvents=1;fontSize=16;" vertex="1" parent="akvTSjm4kYdSnjer6Cz9-24">
          <mxGeometry width="60" height="40" as="geometry">
            <mxRectangle width="60" height="40" as="alternateBounds" />
          </mxGeometry>
        </mxCell>
        <mxCell id="akvTSjm4kYdSnjer6Cz9-26" value="小王" style="shape=partialRectangle;html=1;whiteSpace=wrap;connectable=0;strokeColor=inherit;overflow=hidden;fillColor=none;top=0;left=0;bottom=0;right=0;pointerEvents=1;fontSize=16;" vertex="1" parent="akvTSjm4kYdSnjer6Cz9-24">
          <mxGeometry x="60" width="56" height="40" as="geometry">
            <mxRectangle width="56" height="40" as="alternateBounds" />
          </mxGeometry>
        </mxCell>
        <mxCell id="akvTSjm4kYdSnjer6Cz9-27" value="12" style="shape=partialRectangle;html=1;whiteSpace=wrap;connectable=0;strokeColor=inherit;overflow=hidden;fillColor=none;top=0;left=0;bottom=0;right=0;pointerEvents=1;fontSize=16;" vertex="1" parent="akvTSjm4kYdSnjer6Cz9-24">
          <mxGeometry x="116" width="60" height="40" as="geometry">
            <mxRectangle width="60" height="40" as="alternateBounds" />
          </mxGeometry>
        </mxCell>
        <mxCell id="akvTSjm4kYdSnjer6Cz9-63" value="" style="shape=table;startSize=0;container=1;collapsible=0;childLayout=tableLayout;fontSize=16;" vertex="1" parent="1">
          <mxGeometry x="403.24" y="949" width="180" height="80" as="geometry" />
        </mxCell>
        <mxCell id="akvTSjm4kYdSnjer6Cz9-64" style="shape=tableRow;horizontal=0;startSize=0;swimlaneHead=0;swimlaneBody=0;strokeColor=inherit;top=0;left=0;bottom=0;right=0;collapsible=0;dropTarget=0;fillColor=none;points=[[0,0.5],[1,0.5]];portConstraint=eastwest;fontSize=16;" vertex="1" parent="akvTSjm4kYdSnjer6Cz9-63">
          <mxGeometry width="180" height="40" as="geometry" />
        </mxCell>
        <mxCell id="akvTSjm4kYdSnjer6Cz9-65" value="ID" style="shape=partialRectangle;html=1;whiteSpace=wrap;connectable=0;strokeColor=inherit;overflow=hidden;fillColor=none;top=0;left=0;bottom=0;right=0;pointerEvents=1;fontSize=16;" vertex="1" parent="akvTSjm4kYdSnjer6Cz9-64">
          <mxGeometry width="60" height="40" as="geometry">
            <mxRectangle width="60" height="40" as="alternateBounds" />
          </mxGeometry>
        </mxCell>
        <mxCell id="akvTSjm4kYdSnjer6Cz9-66" value="NAME" style="shape=partialRectangle;html=1;whiteSpace=wrap;connectable=0;strokeColor=inherit;overflow=hidden;fillColor=none;top=0;left=0;bottom=0;right=0;pointerEvents=1;fontSize=16;" vertex="1" parent="akvTSjm4kYdSnjer6Cz9-64">
          <mxGeometry x="60" width="60" height="40" as="geometry">
            <mxRectangle width="60" height="40" as="alternateBounds" />
          </mxGeometry>
        </mxCell>
        <mxCell id="akvTSjm4kYdSnjer6Cz9-67" value="AGE" style="shape=partialRectangle;html=1;whiteSpace=wrap;connectable=0;strokeColor=inherit;overflow=hidden;fillColor=none;top=0;left=0;bottom=0;right=0;pointerEvents=1;fontSize=16;" vertex="1" parent="akvTSjm4kYdSnjer6Cz9-64">
          <mxGeometry x="120" width="60" height="40" as="geometry">
            <mxRectangle width="60" height="40" as="alternateBounds" />
          </mxGeometry>
        </mxCell>
        <mxCell id="akvTSjm4kYdSnjer6Cz9-68" value="" style="shape=tableRow;horizontal=0;startSize=0;swimlaneHead=0;swimlaneBody=0;strokeColor=inherit;top=0;left=0;bottom=0;right=0;collapsible=0;dropTarget=0;fillColor=none;points=[[0,0.5],[1,0.5]];portConstraint=eastwest;fontSize=16;" vertex="1" parent="akvTSjm4kYdSnjer6Cz9-63">
          <mxGeometry y="40" width="180" height="40" as="geometry" />
        </mxCell>
        <mxCell id="akvTSjm4kYdSnjer6Cz9-69" value="2" style="shape=partialRectangle;html=1;whiteSpace=wrap;connectable=0;strokeColor=inherit;overflow=hidden;fillColor=none;top=0;left=0;bottom=0;right=0;pointerEvents=1;fontSize=16;" vertex="1" parent="akvTSjm4kYdSnjer6Cz9-68">
          <mxGeometry width="60" height="40" as="geometry">
            <mxRectangle width="60" height="40" as="alternateBounds" />
          </mxGeometry>
        </mxCell>
        <mxCell id="akvTSjm4kYdSnjer6Cz9-70" value="小陈" style="shape=partialRectangle;html=1;whiteSpace=wrap;connectable=0;strokeColor=inherit;overflow=hidden;fillColor=none;top=0;left=0;bottom=0;right=0;pointerEvents=1;fontSize=16;" vertex="1" parent="akvTSjm4kYdSnjer6Cz9-68">
          <mxGeometry x="60" width="60" height="40" as="geometry">
            <mxRectangle width="60" height="40" as="alternateBounds" />
          </mxGeometry>
        </mxCell>
        <mxCell id="akvTSjm4kYdSnjer6Cz9-71" value="13" style="shape=partialRectangle;html=1;whiteSpace=wrap;connectable=0;strokeColor=inherit;overflow=hidden;fillColor=none;top=0;left=0;bottom=0;right=0;pointerEvents=1;fontSize=16;" vertex="1" parent="akvTSjm4kYdSnjer6Cz9-68">
          <mxGeometry x="120" width="60" height="40" as="geometry">
            <mxRectangle width="60" height="40" as="alternateBounds" />
          </mxGeometry>
        </mxCell>
        <mxCell id="akvTSjm4kYdSnjer6Cz9-84" value="" style="shape=table;startSize=0;container=1;collapsible=0;childLayout=tableLayout;fontSize=16;" vertex="1" parent="1">
          <mxGeometry x="642.5" y="949" width="180" height="80" as="geometry" />
        </mxCell>
        <mxCell id="akvTSjm4kYdSnjer6Cz9-85" style="shape=tableRow;horizontal=0;startSize=0;swimlaneHead=0;swimlaneBody=0;strokeColor=inherit;top=0;left=0;bottom=0;right=0;collapsible=0;dropTarget=0;fillColor=none;points=[[0,0.5],[1,0.5]];portConstraint=eastwest;fontSize=16;" vertex="1" parent="akvTSjm4kYdSnjer6Cz9-84">
          <mxGeometry width="180" height="40" as="geometry" />
        </mxCell>
        <mxCell id="akvTSjm4kYdSnjer6Cz9-86" value="ID" style="shape=partialRectangle;html=1;whiteSpace=wrap;connectable=0;strokeColor=inherit;overflow=hidden;fillColor=none;top=0;left=0;bottom=0;right=0;pointerEvents=1;fontSize=16;" vertex="1" parent="akvTSjm4kYdSnjer6Cz9-85">
          <mxGeometry width="60" height="40" as="geometry">
            <mxRectangle width="60" height="40" as="alternateBounds" />
          </mxGeometry>
        </mxCell>
        <mxCell id="akvTSjm4kYdSnjer6Cz9-87" value="NAME" style="shape=partialRectangle;html=1;whiteSpace=wrap;connectable=0;strokeColor=inherit;overflow=hidden;fillColor=none;top=0;left=0;bottom=0;right=0;pointerEvents=1;fontSize=16;" vertex="1" parent="akvTSjm4kYdSnjer6Cz9-85">
          <mxGeometry x="60" width="60" height="40" as="geometry">
            <mxRectangle width="60" height="40" as="alternateBounds" />
          </mxGeometry>
        </mxCell>
        <mxCell id="akvTSjm4kYdSnjer6Cz9-88" value="AGE" style="shape=partialRectangle;html=1;whiteSpace=wrap;connectable=0;strokeColor=inherit;overflow=hidden;fillColor=none;top=0;left=0;bottom=0;right=0;pointerEvents=1;fontSize=16;" vertex="1" parent="akvTSjm4kYdSnjer6Cz9-85">
          <mxGeometry x="120" width="60" height="40" as="geometry">
            <mxRectangle width="60" height="40" as="alternateBounds" />
          </mxGeometry>
        </mxCell>
        <mxCell id="akvTSjm4kYdSnjer6Cz9-89" value="" style="shape=tableRow;horizontal=0;startSize=0;swimlaneHead=0;swimlaneBody=0;strokeColor=inherit;top=0;left=0;bottom=0;right=0;collapsible=0;dropTarget=0;fillColor=none;points=[[0,0.5],[1,0.5]];portConstraint=eastwest;fontSize=16;" vertex="1" parent="akvTSjm4kYdSnjer6Cz9-84">
          <mxGeometry y="40" width="180" height="40" as="geometry" />
        </mxCell>
        <mxCell id="akvTSjm4kYdSnjer6Cz9-90" value="3" style="shape=partialRectangle;html=1;whiteSpace=wrap;connectable=0;strokeColor=inherit;overflow=hidden;fillColor=none;top=0;left=0;bottom=0;right=0;pointerEvents=1;fontSize=16;" vertex="1" parent="akvTSjm4kYdSnjer6Cz9-89">
          <mxGeometry width="60" height="40" as="geometry">
            <mxRectangle width="60" height="40" as="alternateBounds" />
          </mxGeometry>
        </mxCell>
        <mxCell id="akvTSjm4kYdSnjer6Cz9-91" value="小刘" style="shape=partialRectangle;html=1;whiteSpace=wrap;connectable=0;strokeColor=inherit;overflow=hidden;fillColor=none;top=0;left=0;bottom=0;right=0;pointerEvents=1;fontSize=16;" vertex="1" parent="akvTSjm4kYdSnjer6Cz9-89">
          <mxGeometry x="60" width="60" height="40" as="geometry">
            <mxRectangle width="60" height="40" as="alternateBounds" />
          </mxGeometry>
        </mxCell>
        <mxCell id="akvTSjm4kYdSnjer6Cz9-92" value="14" style="shape=partialRectangle;html=1;whiteSpace=wrap;connectable=0;strokeColor=inherit;overflow=hidden;fillColor=none;top=0;left=0;bottom=0;right=0;pointerEvents=1;fontSize=16;" vertex="1" parent="akvTSjm4kYdSnjer6Cz9-89">
          <mxGeometry x="120" width="60" height="40" as="geometry">
            <mxRectangle width="60" height="40" as="alternateBounds" />
          </mxGeometry>
        </mxCell>
        <mxCell id="akvTSjm4kYdSnjer6Cz9-97" style="edgeStyle=orthogonalEdgeStyle;rounded=0;orthogonalLoop=1;jettySize=auto;html=1;exitX=0.75;exitY=1;exitDx=0;exitDy=0;entryX=0.5;entryY=0;entryDx=0;entryDy=0;" edge="1" parent="1" source="akvTSjm4kYdSnjer6Cz9-93" target="akvTSjm4kYdSnjer6Cz9-84">
          <mxGeometry relative="1" as="geometry" />
        </mxCell>
        <mxCell id="akvTSjm4kYdSnjer6Cz9-93" value="" style="rounded=0;whiteSpace=wrap;html=1;" vertex="1" parent="1">
          <mxGeometry x="426" y="752" width="120" height="60" as="geometry" />
        </mxCell>
        <mxCell id="akvTSjm4kYdSnjer6Cz9-94" style="edgeStyle=orthogonalEdgeStyle;rounded=0;orthogonalLoop=1;jettySize=auto;html=1;exitX=1;exitY=0.5;exitDx=0;exitDy=0;" edge="1" parent="1" source="akvTSjm4kYdSnjer6Cz9-24" target="akvTSjm4kYdSnjer6Cz9-68">
          <mxGeometry relative="1" as="geometry" />
        </mxCell>
        <mxCell id="akvTSjm4kYdSnjer6Cz9-95" style="edgeStyle=orthogonalEdgeStyle;rounded=0;orthogonalLoop=1;jettySize=auto;html=1;exitX=1;exitY=0.5;exitDx=0;exitDy=0;entryX=0;entryY=0.5;entryDx=0;entryDy=0;" edge="1" parent="1" source="akvTSjm4kYdSnjer6Cz9-68" target="akvTSjm4kYdSnjer6Cz9-89">
          <mxGeometry relative="1" as="geometry" />
        </mxCell>
        <mxCell id="akvTSjm4kYdSnjer6Cz9-96" style="edgeStyle=orthogonalEdgeStyle;rounded=0;orthogonalLoop=1;jettySize=auto;html=1;exitX=0.25;exitY=1;exitDx=0;exitDy=0;entryX=0.502;entryY=0.013;entryDx=0;entryDy=0;entryPerimeter=0;" edge="1" parent="1" source="akvTSjm4kYdSnjer6Cz9-93" target="akvTSjm4kYdSnjer6Cz9-42">
          <mxGeometry relative="1" as="geometry" />
        </mxCell>
        <mxCell id="akvTSjm4kYdSnjer6Cz9-98" value="叶子节点" style="text;html=1;align=center;verticalAlign=middle;resizable=0;points=[];autosize=1;strokeColor=none;fillColor=none;" vertex="1" parent="1">
          <mxGeometry x="71" y="976" width="66" height="26" as="geometry" />
        </mxCell>
        <mxCell id="akvTSjm4kYdSnjer6Cz9-228" style="edgeStyle=orthogonalEdgeStyle;rounded=0;orthogonalLoop=1;jettySize=auto;html=1;exitX=0.75;exitY=1;exitDx=0;exitDy=0;entryX=0;entryY=0.5;entryDx=0;entryDy=0;strokeColor=#FF0000;" edge="1" parent="1" source="akvTSjm4kYdSnjer6Cz9-148" target="akvTSjm4kYdSnjer6Cz9-42">
          <mxGeometry relative="1" as="geometry">
            <Array as="points">
              <mxPoint x="300" y="1443" />
              <mxPoint x="131" y="1443" />
              <mxPoint x="131" y="969" />
            </Array>
          </mxGeometry>
        </mxCell>
        <mxCell id="akvTSjm4kYdSnjer6Cz9-148" value="" style="shape=table;startSize=0;container=1;collapsible=0;childLayout=tableLayout;fontSize=16;" vertex="1" parent="1">
          <mxGeometry x="209.49" y="1321" width="120" height="80" as="geometry" />
        </mxCell>
        <mxCell id="akvTSjm4kYdSnjer6Cz9-149" style="shape=tableRow;horizontal=0;startSize=0;swimlaneHead=0;swimlaneBody=0;strokeColor=inherit;top=0;left=0;bottom=0;right=0;collapsible=0;dropTarget=0;fillColor=none;points=[[0,0.5],[1,0.5]];portConstraint=eastwest;fontSize=16;" vertex="1" parent="akvTSjm4kYdSnjer6Cz9-148">
          <mxGeometry width="120" height="40" as="geometry" />
        </mxCell>
        <mxCell id="akvTSjm4kYdSnjer6Cz9-150" value="NAME&lt;br&gt;（key）" style="shape=partialRectangle;html=1;whiteSpace=wrap;connectable=0;strokeColor=inherit;overflow=hidden;fillColor=none;top=0;left=0;bottom=0;right=0;pointerEvents=1;fontSize=16;" vertex="1" parent="akvTSjm4kYdSnjer6Cz9-149">
          <mxGeometry width="60" height="40" as="geometry">
            <mxRectangle width="60" height="40" as="alternateBounds" />
          </mxGeometry>
        </mxCell>
        <mxCell id="akvTSjm4kYdSnjer6Cz9-151" value="ID&lt;br&gt;（value）" style="shape=partialRectangle;html=1;whiteSpace=wrap;connectable=0;strokeColor=inherit;overflow=hidden;fillColor=none;top=0;left=0;bottom=0;right=0;pointerEvents=1;fontSize=16;" vertex="1" parent="akvTSjm4kYdSnjer6Cz9-149">
          <mxGeometry x="60" width="60" height="40" as="geometry">
            <mxRectangle width="60" height="40" as="alternateBounds" />
          </mxGeometry>
        </mxCell>
        <mxCell id="akvTSjm4kYdSnjer6Cz9-153" value="" style="shape=tableRow;horizontal=0;startSize=0;swimlaneHead=0;swimlaneBody=0;strokeColor=inherit;top=0;left=0;bottom=0;right=0;collapsible=0;dropTarget=0;fillColor=none;points=[[0,0.5],[1,0.5]];portConstraint=eastwest;fontSize=16;" vertex="1" parent="akvTSjm4kYdSnjer6Cz9-148">
          <mxGeometry y="40" width="120" height="40" as="geometry" />
        </mxCell>
        <mxCell id="akvTSjm4kYdSnjer6Cz9-154" value="小王" style="shape=partialRectangle;html=1;whiteSpace=wrap;connectable=0;strokeColor=inherit;overflow=hidden;fillColor=none;top=0;left=0;bottom=0;right=0;pointerEvents=1;fontSize=16;" vertex="1" parent="akvTSjm4kYdSnjer6Cz9-153">
          <mxGeometry width="60" height="40" as="geometry">
            <mxRectangle width="60" height="40" as="alternateBounds" />
          </mxGeometry>
        </mxCell>
        <mxCell id="akvTSjm4kYdSnjer6Cz9-155" value="1" style="shape=partialRectangle;html=1;whiteSpace=wrap;connectable=0;strokeColor=inherit;overflow=hidden;fillColor=none;top=0;left=0;bottom=0;right=0;pointerEvents=1;fontSize=16;" vertex="1" parent="akvTSjm4kYdSnjer6Cz9-153">
          <mxGeometry x="60" width="60" height="40" as="geometry">
            <mxRectangle width="60" height="40" as="alternateBounds" />
          </mxGeometry>
        </mxCell>
        <mxCell id="akvTSjm4kYdSnjer6Cz9-229" style="edgeStyle=orthogonalEdgeStyle;rounded=0;orthogonalLoop=1;jettySize=auto;html=1;exitX=0.75;exitY=1;exitDx=0;exitDy=0;entryX=0;entryY=0.25;entryDx=0;entryDy=0;strokeColor=#FF0000;" edge="1" parent="1" source="akvTSjm4kYdSnjer6Cz9-157" target="akvTSjm4kYdSnjer6Cz9-63">
          <mxGeometry relative="1" as="geometry">
            <Array as="points">
              <mxPoint x="533" y="1444" />
              <mxPoint x="383" y="1444" />
              <mxPoint x="383" y="969" />
            </Array>
          </mxGeometry>
        </mxCell>
        <mxCell id="akvTSjm4kYdSnjer6Cz9-157" value="" style="shape=table;startSize=0;container=1;collapsible=0;childLayout=tableLayout;fontSize=16;" vertex="1" parent="1">
          <mxGeometry x="442.49" y="1321" width="120" height="80" as="geometry" />
        </mxCell>
        <mxCell id="akvTSjm4kYdSnjer6Cz9-158" style="shape=tableRow;horizontal=0;startSize=0;swimlaneHead=0;swimlaneBody=0;strokeColor=inherit;top=0;left=0;bottom=0;right=0;collapsible=0;dropTarget=0;fillColor=none;points=[[0,0.5],[1,0.5]];portConstraint=eastwest;fontSize=16;" vertex="1" parent="akvTSjm4kYdSnjer6Cz9-157">
          <mxGeometry width="120" height="40" as="geometry" />
        </mxCell>
        <mxCell id="akvTSjm4kYdSnjer6Cz9-159" value="NAME&lt;br&gt;（key）" style="shape=partialRectangle;html=1;whiteSpace=wrap;connectable=0;strokeColor=inherit;overflow=hidden;fillColor=none;top=0;left=0;bottom=0;right=0;pointerEvents=1;fontSize=16;" vertex="1" parent="akvTSjm4kYdSnjer6Cz9-158">
          <mxGeometry width="60" height="40" as="geometry">
            <mxRectangle width="60" height="40" as="alternateBounds" />
          </mxGeometry>
        </mxCell>
        <mxCell id="akvTSjm4kYdSnjer6Cz9-160" value="ID&lt;br&gt;（value）" style="shape=partialRectangle;html=1;whiteSpace=wrap;connectable=0;strokeColor=inherit;overflow=hidden;fillColor=none;top=0;left=0;bottom=0;right=0;pointerEvents=1;fontSize=16;" vertex="1" parent="akvTSjm4kYdSnjer6Cz9-158">
          <mxGeometry x="60" width="60" height="40" as="geometry">
            <mxRectangle width="60" height="40" as="alternateBounds" />
          </mxGeometry>
        </mxCell>
        <mxCell id="akvTSjm4kYdSnjer6Cz9-162" value="" style="shape=tableRow;horizontal=0;startSize=0;swimlaneHead=0;swimlaneBody=0;strokeColor=inherit;top=0;left=0;bottom=0;right=0;collapsible=0;dropTarget=0;fillColor=none;points=[[0,0.5],[1,0.5]];portConstraint=eastwest;fontSize=16;" vertex="1" parent="akvTSjm4kYdSnjer6Cz9-157">
          <mxGeometry y="40" width="120" height="40" as="geometry" />
        </mxCell>
        <mxCell id="akvTSjm4kYdSnjer6Cz9-163" value="小陈" style="shape=partialRectangle;html=1;whiteSpace=wrap;connectable=0;strokeColor=inherit;overflow=hidden;fillColor=none;top=0;left=0;bottom=0;right=0;pointerEvents=1;fontSize=16;" vertex="1" parent="akvTSjm4kYdSnjer6Cz9-162">
          <mxGeometry width="60" height="40" as="geometry">
            <mxRectangle width="60" height="40" as="alternateBounds" />
          </mxGeometry>
        </mxCell>
        <mxCell id="akvTSjm4kYdSnjer6Cz9-164" value="2" style="shape=partialRectangle;html=1;whiteSpace=wrap;connectable=0;strokeColor=inherit;overflow=hidden;fillColor=none;top=0;left=0;bottom=0;right=0;pointerEvents=1;fontSize=16;" vertex="1" parent="akvTSjm4kYdSnjer6Cz9-162">
          <mxGeometry x="60" width="60" height="40" as="geometry">
            <mxRectangle width="60" height="40" as="alternateBounds" />
          </mxGeometry>
        </mxCell>
        <mxCell id="akvTSjm4kYdSnjer6Cz9-166" value="" style="shape=table;startSize=0;container=1;collapsible=0;childLayout=tableLayout;fontSize=16;" vertex="1" parent="1">
          <mxGeometry x="681.75" y="1321" width="120" height="80" as="geometry" />
        </mxCell>
        <mxCell id="akvTSjm4kYdSnjer6Cz9-167" style="shape=tableRow;horizontal=0;startSize=0;swimlaneHead=0;swimlaneBody=0;strokeColor=inherit;top=0;left=0;bottom=0;right=0;collapsible=0;dropTarget=0;fillColor=none;points=[[0,0.5],[1,0.5]];portConstraint=eastwest;fontSize=16;" vertex="1" parent="akvTSjm4kYdSnjer6Cz9-166">
          <mxGeometry width="120" height="40" as="geometry" />
        </mxCell>
        <mxCell id="akvTSjm4kYdSnjer6Cz9-168" value="NAME&lt;br&gt;（key）" style="shape=partialRectangle;html=1;whiteSpace=wrap;connectable=0;strokeColor=inherit;overflow=hidden;fillColor=none;top=0;left=0;bottom=0;right=0;pointerEvents=1;fontSize=16;" vertex="1" parent="akvTSjm4kYdSnjer6Cz9-167">
          <mxGeometry width="60" height="40" as="geometry">
            <mxRectangle width="60" height="40" as="alternateBounds" />
          </mxGeometry>
        </mxCell>
        <mxCell id="akvTSjm4kYdSnjer6Cz9-169" value="ID&lt;br&gt;（value）" style="shape=partialRectangle;html=1;whiteSpace=wrap;connectable=0;strokeColor=inherit;overflow=hidden;fillColor=none;top=0;left=0;bottom=0;right=0;pointerEvents=1;fontSize=16;" vertex="1" parent="akvTSjm4kYdSnjer6Cz9-167">
          <mxGeometry x="60" width="60" height="40" as="geometry">
            <mxRectangle width="60" height="40" as="alternateBounds" />
          </mxGeometry>
        </mxCell>
        <mxCell id="akvTSjm4kYdSnjer6Cz9-171" value="" style="shape=tableRow;horizontal=0;startSize=0;swimlaneHead=0;swimlaneBody=0;strokeColor=inherit;top=0;left=0;bottom=0;right=0;collapsible=0;dropTarget=0;fillColor=none;points=[[0,0.5],[1,0.5]];portConstraint=eastwest;fontSize=16;" vertex="1" parent="akvTSjm4kYdSnjer6Cz9-166">
          <mxGeometry y="40" width="120" height="40" as="geometry" />
        </mxCell>
        <mxCell id="akvTSjm4kYdSnjer6Cz9-172" value="小刘" style="shape=partialRectangle;html=1;whiteSpace=wrap;connectable=0;strokeColor=inherit;overflow=hidden;fillColor=none;top=0;left=0;bottom=0;right=0;pointerEvents=1;fontSize=16;" vertex="1" parent="akvTSjm4kYdSnjer6Cz9-171">
          <mxGeometry width="60" height="40" as="geometry">
            <mxRectangle width="60" height="40" as="alternateBounds" />
          </mxGeometry>
        </mxCell>
        <mxCell id="akvTSjm4kYdSnjer6Cz9-173" value="3" style="shape=partialRectangle;html=1;whiteSpace=wrap;connectable=0;strokeColor=inherit;overflow=hidden;fillColor=none;top=0;left=0;bottom=0;right=0;pointerEvents=1;fontSize=16;" vertex="1" parent="akvTSjm4kYdSnjer6Cz9-171">
          <mxGeometry x="60" width="60" height="40" as="geometry">
            <mxRectangle width="60" height="40" as="alternateBounds" />
          </mxGeometry>
        </mxCell>
        <mxCell id="akvTSjm4kYdSnjer6Cz9-175" style="edgeStyle=orthogonalEdgeStyle;rounded=0;orthogonalLoop=1;jettySize=auto;html=1;exitX=0.75;exitY=1;exitDx=0;exitDy=0;entryX=0.5;entryY=0;entryDx=0;entryDy=0;" edge="1" parent="1" source="akvTSjm4kYdSnjer6Cz9-176" target="akvTSjm4kYdSnjer6Cz9-166">
          <mxGeometry relative="1" as="geometry" />
        </mxCell>
        <mxCell id="akvTSjm4kYdSnjer6Cz9-176" value="" style="rounded=0;whiteSpace=wrap;html=1;" vertex="1" parent="1">
          <mxGeometry x="465.25" y="1124" width="120" height="60" as="geometry" />
        </mxCell>
        <mxCell id="akvTSjm4kYdSnjer6Cz9-177" style="edgeStyle=orthogonalEdgeStyle;rounded=0;orthogonalLoop=1;jettySize=auto;html=1;exitX=1;exitY=0.5;exitDx=0;exitDy=0;" edge="1" parent="1" source="akvTSjm4kYdSnjer6Cz9-153" target="akvTSjm4kYdSnjer6Cz9-162">
          <mxGeometry relative="1" as="geometry" />
        </mxCell>
        <mxCell id="akvTSjm4kYdSnjer6Cz9-178" style="edgeStyle=orthogonalEdgeStyle;rounded=0;orthogonalLoop=1;jettySize=auto;html=1;exitX=1;exitY=0.5;exitDx=0;exitDy=0;entryX=0;entryY=0.5;entryDx=0;entryDy=0;" edge="1" parent="1" source="akvTSjm4kYdSnjer6Cz9-162" target="akvTSjm4kYdSnjer6Cz9-171">
          <mxGeometry relative="1" as="geometry" />
        </mxCell>
        <mxCell id="akvTSjm4kYdSnjer6Cz9-179" style="edgeStyle=orthogonalEdgeStyle;rounded=0;orthogonalLoop=1;jettySize=auto;html=1;exitX=0.25;exitY=1;exitDx=0;exitDy=0;entryX=0.502;entryY=0.013;entryDx=0;entryDy=0;entryPerimeter=0;" edge="1" parent="1" source="akvTSjm4kYdSnjer6Cz9-176" target="akvTSjm4kYdSnjer6Cz9-149">
          <mxGeometry relative="1" as="geometry" />
        </mxCell>
        <mxCell id="akvTSjm4kYdSnjer6Cz9-180" value="叶子节点" style="text;html=1;align=center;verticalAlign=middle;resizable=0;points=[];autosize=1;strokeColor=none;fillColor=none;" vertex="1" parent="1">
          <mxGeometry x="66" y="1360" width="66" height="26" as="geometry" />
        </mxCell>
        <mxCell id="akvTSjm4kYdSnjer6Cz9-224" value="例如用NAME作为普通索引的B+树" style="text;html=1;align=left;verticalAlign=middle;resizable=0;points=[];autosize=1;strokeColor=none;fillColor=none;" vertex="1" parent="1">
          <mxGeometry x="176.25" y="1106" width="200" height="26" as="geometry" />
        </mxCell>
        <mxCell id="akvTSjm4kYdSnjer6Cz9-226" value="用ID作为主键的B+树" style="text;html=1;align=left;verticalAlign=middle;resizable=0;points=[];autosize=1;strokeColor=none;fillColor=none;" vertex="1" parent="1">
          <mxGeometry x="163" y="723" width="129" height="26" as="geometry" />
        </mxCell>
        <mxCell id="akvTSjm4kYdSnjer6Cz9-231" value="&lt;font style=&quot;font-size: 19px;&quot; color=&quot;#ff0000&quot;&gt;回表&lt;/font&gt;" style="text;html=1;align=center;verticalAlign=middle;resizable=0;points=[];autosize=1;strokeColor=none;fillColor=none;" vertex="1" parent="1">
          <mxGeometry x="195" y="1447" width="56" height="35" as="geometry" />
        </mxCell>
        <mxCell id="akvTSjm4kYdSnjer6Cz9-232" value="&lt;font style=&quot;font-size: 19px;&quot; color=&quot;#ff0000&quot;&gt;回表&lt;/font&gt;" style="text;html=1;align=center;verticalAlign=middle;resizable=0;points=[];autosize=1;strokeColor=none;fillColor=none;" vertex="1" parent="1">
          <mxGeometry x="433" y="1449" width="56" height="35" as="geometry" />
        </mxCell>
      </root>
    </mxGraphModel>
  </diagram>
</mxfile>
